<svg width="43" height="44" fill="none" xmlns="http://www.w3.org/2000/svg"><path d="M10.643 11.393a14.98 14.98 0 000 21.214 14.98 14.98 0 0021.214 0 14.98 14.98 0 000-21.214 14.98 14.98 0 00-21.214 0zm15.91 6.01L21.957 22l4.596 4.596c.212.212.212.495 0 .707-.212.212-.495.212-.707 0l-4.596-4.596-4.596 4.596c-.212.212-.495.212-.707 0-.212-.212-.212-.495 0-.707L20.543 22l-4.596-4.596c-.212-.212-.212-.495 0-.707.212-.212.495-.212.707 0l4.596 4.596 4.596-4.596c.212-.212.495-.212.707 0 .212.212.212.495 0 .707z" fill="#fff"/></svg>